<svg xmlns="http://www.w3.org/2000/svg" xmlns:xlink="http://www.w3.org/1999/xlink" width="500" zoomAndPan="magnify" viewBox="0 0 375 374.999991" height="500" preserveAspectRatio="xMidYMid meet" version="1.0"><defs><clipPath id="f48f7aa049"><path d="M 50.507812 74.234375 L 322.242188 74.234375 L 322.242188 341 L 50.507812 341 Z M 50.507812 74.234375 " clip-rule="nonzero"/></clipPath><clipPath id="db5e3c6d05"><path d="M 119 27 L 299.28125 27 L 299.28125 113 L 119 113 Z M 119 27 " clip-rule="nonzero"/></clipPath></defs><g clip-path="url(#f48f7aa049)"><path fill="#00744e" d="M 186.335938 74.214844 C 261.34375 74.214844 322.144531 135.058594 322.144531 210.109375 C 322.144531 272.414062 280.246094 324.933594 223.097656 340.96875 L 197.699219 250.5625 C 215.363281 245.601562 228.316406 229.367188 228.316406 210.109375 C 228.316406 186.914062 209.523438 168.097656 186.335938 168.097656 C 163.15625 168.097656 144.355469 186.914062 144.355469 210.109375 C 144.355469 229.367188 157.308594 245.601562 174.972656 250.5625 L 149.582031 340.96875 C 92.4375 324.933594 50.539062 272.414062 50.539062 210.109375 C 50.539062 135.058594 111.339844 74.214844 186.335938 74.214844 Z M 186.335938 74.214844 " fill-opacity="1" fill-rule="evenodd"/></g><g clip-path="url(#db5e3c6d05)"><path fill="#ff3131" d="M 197.273438 71.683594 C 202.5 72.070312 207.648438 72.722656 212.792969 72.59375 C 221.796875 72.414062 230.785156 72.199219 239.609375 70.171875 C 245.011719 68.867188 250.59375 68.480469 256.046875 67.441406 C 260.671875 66.53125 265.21875 65.277344 269.839844 64.238281 C 272.863281 63.546875 275.898438 62.675781 278.96875 62.332031 C 281.953125 62.035156 283.8125 63.765625 284.976562 66.621094 C 286.320312 69.953125 288 73.15625 289.394531 76.488281 C 291.289062 81.164062 293.277344 85.882812 294.835938 90.6875 C 296.527344 95.835938 297.820312 101.117188 299.203125 106.394531 C 299.597656 107.910156 299.460938 109.597656 299.679688 111.152344 C 299.855469 112.40625 299.253906 112.753906 298.253906 112.445312 C 295.527344 111.714844 292.800781 111.0625 290.164062 110.074219 C 283.898438 107.78125 277.714844 105.359375 271.480469 102.976562 C 265.640625 100.679688 259.851562 98.296875 254.011719 96.042969 C 247.957031 93.710938 241.773438 91.507812 235.714844 89.085938 C 233.988281 88.390625 232.644531 88.6875 231.347656 89.726562 C 224.691406 95.054688 217.507812 99.464844 209.988281 103.410156 C 203.714844 106.652344 197.183594 109.382812 190.308594 110.589844 C 184.035156 111.714844 177.632812 112.0625 171.152344 110.894531 C 163.660156 109.597656 157.089844 106.691406 151.035156 102.410156 C 147.835938 100.117188 144.683594 97.644531 141.867188 94.925781 C 138.023438 91.25 136.15625 86.484375 134.824219 81.421875 C 133.300781 75.488281 132.789062 69.519531 132.660156 63.457031 C 132.53125 58.394531 132.53125 53.375 133.082031 48.359375 C 133.480469 44.8125 133.222656 41.300781 131.007812 38.1875 C 129.496094 36.023438 127.078125 35.585938 124.914062 34.636719 C 123.53125 33.984375 121.929688 33.769531 120.507812 33.253906 C 120.070312 33.074219 119.765625 32.511719 119.378906 32.125 C 119.894531 31.949219 120.378906 31.652344 120.890625 31.5625 C 123.835938 31.257812 126.859375 31.128906 129.804688 30.613281 C 131.1875 30.398438 132.480469 29.527344 133.824219 28.921875 C 138.753906 26.71875 142.953125 28.410156 146.925781 31.304688 C 151.46875 34.550781 154.542969 39.136719 156.835938 44.03125 C 160.460938 51.644531 166.042969 57.269531 172.878906 61.855469 C 179.234375 66.097656 186.453125 68.390625 193.726562 70.515625 C 194.84375 70.863281 196.019531 71.210938 197.273438 71.683594 " fill-opacity="1" fill-rule="nonzero"/></g></svg>